# xmcd
#
# Track frame offsets: 
#        150
#        45054
#        107204
#        153070
#        178941
#        228885
#        243784
#        261952
#        269413
#        280268
#        320736
#
# Disc length: 4636 seconds
#
# Revision: 1
# Processed by: cddbd v1.5.2PL0 Copyright (c) Steve Scherf et al.
# Submitted via: ExactAudioCopy v0.99pb5
#
DISCID=8e121a0b
DTITLE=Andrea Macinanti - M.E. Bossi - Complete Organ Works. Vol. 1
DYEAR=2002
DGENRE=Organ
TTITLE0=Fantaisie, organ     Op. 64
TTITLE1=Jeanne d'Arc, organ 
TTITLE2=Fugue on FEDE A BACH, organ     Op. 62
TTITLE3=Scherzo, organ     Op. 95
TTITLE4=Epousailles - Sposalizio, organ, violin, cello and harp   Médita
TTITLE4=tion réligieuse  Op. 134
TTITLE5=Epousailles - Sposalizio, organ, violin, cello and harp   Improv
TTITLE5=isation  Op. 134
TTITLE6=Missa pro Sponso et Sponsa, voices and organ   Graduale  Op. 110
TTITLE7=Missa pro Sponso et Sponsa, voices and organ   Offertorio  Op. 1
TTITLE7=10
TTITLE8=Missa pro Sponso et Sponsa, voices and organ   Communio  Op. 110
TTITLE8=
TTITLE9=Missa pro Sponso et Sponsa, voices and organ   Marcia Nuziale  O
TTITLE9=p. 110
TTITLE10=Westminster Abbey - Hymn of Glory, organ     Op. 76
EXTD=
EXTT0=
EXTT1=
EXTT2=
EXTT3=
EXTT4=
EXTT5=
EXTT6=
EXTT7=
EXTT8=
EXTT9=
EXTT10=
PLAYORDER=
